<svg id="SvgjsSvg1001" width="256" height="256" xmlns="http://www.w3.org/2000/svg" version="1.1" xmlns:xlink="http://www.w3.org/1999/xlink" xmlns:svgjs="http://svgjs.com/svgjs"><defs id="SvgjsDefs1002"></defs><g id="SvgjsG1008"><svg xmlns="http://www.w3.org/2000/svg" viewBox="0 0 64 64" width="256" height="256"><path fill="#1d1d1d" d="M63 58H2a1 1 0 0 1-1-1V9a1 1 0 0 1 1-1h61a1 1 0 0 1 1 1v48a1 1 0 0 1-1 1zM3 56h59V10H3v46z" class="color1D1D1D svgShape"></path><path fill="#1d1d1d" d="M63 18H2a1 1 0 110-2h61a1 1 0 110 2zM51 14a1.01 1.01 0 01-1-1c0-.26.11-.52.29-.71.37-.37 1.05-.37 1.42 0 .18.19.29.45.29.71s-.11.52-.29.71c-.19.18-.44.29-.71.29zM55 14c-.26 0-.52-.11-.71-.29-.18-.19-.29-.45-.29-.71s.11-.52.29-.71c.38-.37 1.05-.37 1.42 0 .18.19.29.45.29.71s-.11.52-.29.71c-.19.18-.44.29-.71.29zM59 14c-.26 0-.52-.11-.71-.29-.18-.19-.29-.45-.29-.71s.11-.52.29-.71c.38-.37 1.05-.37 1.42 0 .18.19.29.45.29.71s-.11.52-.29.71c-.19.18-.45.29-.71.29z" class="color1D1D1D svgShape"></path><path fill="#1d1d1d" d="M47 18a1 1 0 01-1-1V9a1 1 0 112 0v8a1 1 0 01-1 1zM14 38H7a1 1 0 110-2h7a1 1 0 110 2z" class="color1D1D1D svgShape"></path><path fill="#1d1d1d" d="M14 45H7a1 1 0 01-1-1V30a1 1 0 011-1h7a1 1 0 110 2H8v12h6a1 1 0 110 2zM18 45a1 1 0 01-1-1V30a1 1 0 112 0v14a1 1 0 01-1 1z" class="color1D1D1D svgShape"></path><path fill="#1d1d1d" d="M21.5 38H18a1 1 0 1 1 0-2h3.5c1.378 0 2.5-1.121 2.5-2.5S22.878 31 21.5 31H18a1 1 0 1 1 0-2h3.5c2.481 0 4.5 2.019 4.5 4.5S23.981 38 21.5 38z" class="color1D1D1D svgShape"></path><path fill="#1d1d1d" d="M25.001 45a1 1 0 01-.815-.419l-5-7a1 1 0 111.628-1.162l5 7A1 1 0 0125.001 45zM45 45h-3c-1.654 0-3-1.346-3-3V32c0-1.654 1.346-3 3-3h3c1.654 0 3 1.346 3 3v10c0 1.654-1.346 3-3 3zm-3-14c-.551 0-1 .448-1 1v10c0 .552.449 1 1 1h3c.551 0 1-.448 1-1V32c0-.552-.449-1-1-1h-3z" class="color1D1D1D svgShape"></path><g fill="#000000" class="color000 svgShape"><path fill="#1d1d1d" d="M51 45a1 1 0 0 1-1-1V30a1 1 0 1 1 2 0v14a1 1 0 0 1-1 1z" class="color1D1D1D svgShape"></path><path fill="#1d1d1d" d="M54.5 38H51a1 1 0 1 1 0-2h3.5c1.378 0 2.5-1.121 2.5-2.5S55.878 31 54.5 31H51a1 1 0 1 1 0-2h3.5c2.481 0 4.5 2.019 4.5 4.5S56.981 38 54.5 38z" class="color1D1D1D svgShape"></path><path fill="#1d1d1d" d="M58.001 45a1 1 0 0 1-.815-.419l-5-7a1 1 0 1 1 1.628-1.162l5 7A1 1 0 0 1 58.001 45z" class="color1D1D1D svgShape"></path></g><g fill="#000000" class="color000 svgShape"><path fill="#1d1d1d" d="M29 45a1 1 0 0 1-1-1V30a1 1 0 1 1 2 0v14a1 1 0 0 1-1 1z" class="color1D1D1D svgShape"></path><path fill="#1d1d1d" d="M32.5 38H29a1 1 0 1 1 0-2h3.5c1.378 0 2.5-1.121 2.5-2.5S33.878 31 32.5 31H29a1 1 0 1 1 0-2h3.5c2.481 0 4.5 2.019 4.5 4.5S34.981 38 32.5 38z" class="color1D1D1D svgShape"></path><path fill="#1d1d1d" d="M36.001 45a1 1 0 0 1-.815-.419l-5-7a1 1 0 1 1 1.628-1.162l5 7A1 1 0 0 1 36.001 45z" class="color1D1D1D svgShape"></path></g></svg></g></svg>